<svg width="24" height="24" viewBox="0 0 24 24" fill="none" xmlns="http://www.w3.org/2000/svg">
<path fill-rule="evenodd" clip-rule="evenodd" d="M10.0002 4H14.0002C17.7714 4 19.657 4 20.8286 5.17157C22.0002 6.34315 22.0002 8.22878 22.0002 12C22.0002 15.7713 22.0002 17.6568 20.8286 18.8284C19.657 20 17.7714 20 14.0002 20H10.0002C6.22891 20 4.3433 20 3.17173 18.8284C2.00015 17.6568 2.00015 15.7713 2.00015 12C2.00015 8.22878 2.00015 6.34315 3.17173 5.17157C4.3433 4 6.22891 4 10.0002 4ZM13.2502 9C13.2502 8.5858 13.5859 8.25 14.0002 8.25H19.0002C19.4144 8.25 19.7502 8.5858 19.7502 9C19.7502 9.41424 19.4144 9.75 19.0002 9.75H14.0002C13.5859 9.75 13.2502 9.41424 13.2502 9ZM14.2501 12C14.2501 11.5858 14.5859 11.25 15.0001 11.25H19.0002C19.4144 11.25 19.7502 11.5858 19.7502 12C19.7502 12.4142 19.4144 12.75 19.0002 12.75H15.0001C14.5859 12.75 14.2501 12.4142 14.2501 12ZM15.2502 15C15.2502 14.5858 15.5859 14.25 16.0002 14.25H19.0002C19.4144 14.25 19.7502 14.5858 19.7502 15C19.7502 15.4142 19.4144 15.75 19.0002 15.75H16.0002C15.5859 15.75 15.2502 15.4142 15.2502 15ZM11.0002 9C11.0002 10.1046 10.1047 11 9.00014 11C7.89557 11 7.00017 10.1046 7.00017 9C7.00017 7.89542 7.89557 6.99998 9.00014 6.99998C10.1047 6.99998 11.0002 7.89542 11.0002 9ZM9.00014 17C13.0002 17 13.0002 16.1046 13.0002 15C13.0002 13.8954 11.2093 13 9.00014 13C6.79104 13 5.00016 13.8954 5.00016 15C5.00016 16.1046 5.00016 17 9.00014 17Z" fill="#ff458a"/>
</svg>
