<svg width="24" height="24" viewBox="0 0 24 24" fill="none" xmlns="http://www.w3.org/2000/svg">
<path d="M18.5969 8.60662C19.2414 9.77119 19.609 11.1094 19.609 12.532C19.609 17.0167 15.9604 20.6653 11.4757 20.6653C6.99098 20.6653 3.34246 17.0167 3.34246 12.532C3.34246 8.0474 6.99098 4.3988 11.4757 4.3988C12.8625 4.3988 14.1692 4.74806 15.3129 5.36269L16.9878 3.68784C15.3502 2.66292 13.4552 2.11401 11.4756 2.11401C8.69291 2.11401 6.07668 3.19767 4.10896 5.16539C2.14124 7.13311 1.05759 9.74929 1.05759 12.5321C1.05759 15.3148 2.14124 17.931 4.10896 19.8987C6.07673 21.8665 8.69291 22.9501 11.4756 22.9501C14.2584 22.9501 16.8746 21.8665 18.8423 19.8987C20.8101 17.931 21.8937 15.3148 21.8937 12.5321C21.8937 10.5187 21.3261 8.59279 20.2672 6.93633L18.5969 8.60662Z" fill="#ff458a"/>
<path d="M12.2729 10.6068C11.523 10.2995 10.6257 10.4471 10.0174 11.0554C9.20591 11.8669 9.20591 13.176 10.0174 13.9812C10.8286 14.7924 12.1376 14.7924 12.9427 13.9812C13.5514 13.3725 13.6987 12.4752 13.3914 11.7257L19.3346 5.78247L20.3243 5.91147L22.9423 3.29313L20.9635 3.02908L20.6991 1.04993L18.0808 3.67427L18.2101 4.66371L12.2729 10.6068Z" fill="#ff458a"/>
<path d="M15.3511 11.8524C15.3897 12.0733 15.41 12.3003 15.41 12.5321C15.41 14.7015 13.6451 16.4664 11.4756 16.4664C9.30627 16.4664 7.54128 14.7015 7.54128 12.5321C7.54128 10.3627 9.30622 8.59776 11.4756 8.59776C11.6664 8.59776 11.854 8.61168 12.0376 8.63802L13.8792 6.79635C13.1394 6.48515 12.3273 6.31293 11.4756 6.31293C8.04641 6.31293 5.2565 9.10283 5.2565 12.5321C5.2565 15.9613 8.04641 18.7513 11.4756 18.7513C14.9049 18.7513 17.6948 15.9613 17.6948 12.5321C17.6948 11.6437 17.5072 10.7985 17.1702 10.0333L15.3511 11.8524Z" fill="#ff458a"/>
</svg>
