<svg width="24" height="24" viewBox="0 0 24 24" fill="none" xmlns="http://www.w3.org/2000/svg">
<path d="M3.5 4.5H18C18.739 4.5002 19.4517 4.77457 20 5.27V4.5C20 3.96957 19.7893 3.46086 19.4142 3.08579C19.0391 2.71071 18.5304 2.5 18 2.5H12.19C11.8286 2.4986 11.4741 2.40092 11.163 2.217L9.85 1.4245C9.38388 1.1478 8.85206 1.0012 8.31 1H3.5C2.96957 1 2.46086 1.21071 2.08579 1.58579C1.71071 1.96086 1.5 2.46957 1.5 3V5.27C2.04834 4.77457 2.76099 4.5002 3.5 4.5Z" fill="#ff458a"/>
<path d="M18 5.5H3.5C2.96957 5.5 2.46086 5.71071 2.08579 6.08579C1.71071 6.46086 1.5 6.96957 1.5 7.5V15.5C1.5 16.0304 1.71071 16.5391 2.08579 16.9142C2.46086 17.2893 2.96957 17.5 3.5 17.5H8.909C9.038 16.967 9.1935 16.423 9.373 15.888C9.51853 15.4519 9.74867 15.0489 10.0502 14.7019C10.3518 14.3549 10.7188 14.0708 11.1303 13.8659C11.5418 13.661 11.9897 13.5392 12.4483 13.5077C12.907 13.4761 13.3673 13.5354 13.803 13.682C14.0415 13.7622 14.2703 13.8689 14.485 14H17.515C17.7296 13.869 17.9582 13.7625 18.1965 13.6825C18.7769 13.4845 19.3999 13.4465 20 13.5725V7.5C20 6.96957 19.7893 6.46086 19.4142 6.08579C19.0391 5.71071 18.5304 5.5 18 5.5ZM13.285 10.1405L11.05 12.376C11.0108 12.4157 10.964 12.4472 10.9125 12.4687C10.861 12.4901 10.8058 12.5012 10.75 12.5012C10.6942 12.5012 10.639 12.4901 10.5875 12.4687C10.536 12.4472 10.4892 12.4157 10.45 12.376L8.215 10.1405C8.17995 10.1055 8.15606 10.0609 8.14638 10.0124C8.1367 9.96384 8.14165 9.91351 8.16061 9.86777C8.17957 9.82203 8.21168 9.78295 8.25287 9.75549C8.29407 9.72803 8.34249 9.71341 8.392 9.7135H9.481V7.5C9.481 7.36739 9.53368 7.24021 9.62745 7.14645C9.72121 7.05268 9.84839 7 9.981 7H11.519C11.6516 7 11.7788 7.05268 11.8726 7.14645C11.9663 7.24021 12.019 7.36739 12.019 7.5V9.7135H13.108C13.1575 9.71341 13.2059 9.72803 13.2471 9.75549C13.2883 9.78295 13.3204 9.82203 13.3394 9.86777C13.3584 9.91351 13.3633 9.96384 13.3536 10.0124C13.3439 10.0609 13.3201 10.1055 13.285 10.1405Z" fill="#ff458a"/>
<path d="M22.488 20.05C22.3816 18.7388 22.1096 17.4463 21.6785 16.2035C21.4678 15.575 21.0161 15.0559 20.4228 14.7604C19.8295 14.4649 19.1431 14.4171 18.5145 14.6275C18.2645 14.7126 18.0304 14.8385 17.8215 15H14.1785C13.9694 14.8395 13.7353 14.7147 13.4855 14.6305C12.857 14.42 12.1706 14.4678 11.5773 14.7632C10.984 15.0587 10.5323 15.5776 10.3215 16.206C9.89065 17.4481 9.61866 18.7397 9.512 20.05C9.423 21.6605 9.8245 22.6265 10.706 22.9215C11.5495 23.204 12.418 22.7265 13.283 21.497H18.717C19.4205 22.497 20.1255 23.001 20.8195 23.0005C20.9809 23.0002 21.1412 22.9735 21.294 22.9215C22.1755 22.629 22.577 21.663 22.488 20.05ZM19 16.5C19.0989 16.5 19.1956 16.5293 19.2778 16.5843C19.36 16.6392 19.4241 16.7173 19.4619 16.8087C19.4998 16.9 19.5097 17.0006 19.4904 17.0975C19.4711 17.1945 19.4235 17.2836 19.3536 17.3536C19.2836 17.4235 19.1945 17.4711 19.0975 17.4904C19.0006 17.5097 18.9 17.4998 18.8087 17.4619C18.7173 17.4241 18.6392 17.36 18.5843 17.2778C18.5293 17.1956 18.5 17.0989 18.5 17C18.5 16.8674 18.5527 16.7402 18.6464 16.6464C18.7402 16.5527 18.8674 16.5 19 16.5ZM14 18.5H13.5V19C13.5 19.1326 13.4473 19.2598 13.3536 19.3536C13.2598 19.4473 13.1326 19.5 13 19.5C12.8674 19.5 12.7402 19.4473 12.6464 19.3536C12.5527 19.2598 12.5 19.1326 12.5 19V18.5H12C11.8674 18.5 11.7402 18.4473 11.6464 18.3536C11.5527 18.2598 11.5 18.1326 11.5 18C11.5 17.8674 11.5527 17.7402 11.6464 17.6464C11.7402 17.5527 11.8674 17.5 12 17.5H12.5V17C12.5 16.8674 12.5527 16.7402 12.6464 16.6464C12.7402 16.5527 12.8674 16.5 13 16.5C13.1326 16.5 13.2598 16.5527 13.3536 16.6464C13.4473 16.7402 13.5 16.8674 13.5 17V17.5H14C14.1326 17.5 14.2598 17.5527 14.3536 17.6464C14.4473 17.7402 14.5 17.8674 14.5 18C14.5 18.1326 14.4473 18.2598 14.3536 18.3536C14.2598 18.4473 14.1326 18.5 14 18.5ZM18 18.5C17.9011 18.5 17.8044 18.4707 17.7222 18.4157C17.64 18.3608 17.5759 18.2827 17.5381 18.1913C17.5002 18.1 17.4903 17.9994 17.5096 17.9025C17.5289 17.8055 17.5765 17.7164 17.6464 17.6464C17.7164 17.5765 17.8055 17.5289 17.9025 17.5096C17.9994 17.4903 18.1 17.5002 18.1913 17.5381C18.2827 17.5759 18.3608 17.64 18.4157 17.7222C18.4707 17.8044 18.5 17.9011 18.5 18C18.5 18.1326 18.4473 18.2598 18.3536 18.3536C18.2598 18.4473 18.1326 18.5 18 18.5ZM19 19.5C18.9011 19.5 18.8044 19.4707 18.7222 19.4157C18.64 19.3608 18.5759 19.2827 18.5381 19.1913C18.5002 19.1 18.4903 18.9994 18.5096 18.9025C18.5289 18.8055 18.5765 18.7164 18.6464 18.6464C18.7164 18.5765 18.8055 18.5289 18.9025 18.5096C18.9994 18.4903 19.1 18.5002 19.1913 18.5381C19.2827 18.5759 19.3608 18.64 19.4157 18.7222C19.4707 18.8044 19.5 18.9011 19.5 19C19.5 19.1326 19.4473 19.2598 19.3536 19.3536C19.2598 19.4473 19.1326 19.5 19 19.5ZM20 18.5C19.9011 18.5 19.8044 18.4707 19.7222 18.4157C19.64 18.3608 19.5759 18.2827 19.5381 18.1913C19.5002 18.1 19.4903 17.9994 19.5096 17.9025C19.5289 17.8055 19.5765 17.7164 19.6464 17.6464C19.7164 17.5765 19.8055 17.5289 19.9025 17.5096C19.9994 17.4903 20.1 17.5002 20.1913 17.5381C20.2827 17.5759 20.3608 17.64 20.4157 17.7222C20.4707 17.8044 20.5 17.9011 20.5 18C20.5 18.1326 20.4473 18.2598 20.3536 18.3536C20.2598 18.4473 20.1326 18.5 20 18.5Z" fill="#ff458a"/>
</svg>
