<svg width="24" height="24" viewBox="0 0 24 24" fill="none" xmlns="http://www.w3.org/2000/svg">
<path d="M16.9314 2H3.67701C2.39552 2 1.35852 3.0415 1.35852 4.32302V11.5728C1.35852 12.2158 1.61664 12.7955 2.03777 13.2166C2.45436 13.6377 3.034 13.8958 3.67701 13.8958C3.83098 13.8958 3.94872 14.0317 3.92606 14.1902L3.53663 16.6898C3.49589 16.9343 3.78568 17.0792 3.95776 16.9072L6.96003 13.9683C7.00983 13.923 7.0687 13.8958 7.13664 13.8958H16.9314C18.2129 13.8958 19.2544 12.8589 19.2544 11.5728V4.32302C19.2544 3.0415 18.2129 2 16.9314 2ZM6.66571 7.75092L6.02267 8.37583C5.96833 8.43017 5.94116 8.5117 5.95476 8.58867L6.10871 9.4717C6.14041 9.66188 5.93663 9.81132 5.76455 9.72075L4.96759 9.30415C4.89966 9.26792 4.81815 9.26792 4.75021 9.30415L3.94872 9.72075C3.77665 9.81132 3.57287 9.66641 3.6091 9.4717L3.75852 8.58867C3.77211 8.5117 3.74494 8.4347 3.69061 8.38036L3.04757 7.75092C2.90719 7.61055 2.98419 7.37509 3.17891 7.34339L4.06644 7.21659C4.14344 7.20755 4.21135 7.15772 4.24758 7.08981L4.64607 6.27922C4.73211 6.10264 4.9857 6.10264 5.07173 6.27922L5.46569 7.08981C5.50193 7.15772 5.56984 7.20755 5.64684 7.21659L6.53437 7.34339C6.72908 7.37509 6.80608 7.61055 6.66571 7.75092ZM12.1132 7.75092L11.4702 8.37583C11.4159 8.43017 11.3887 8.5117 11.4023 8.58867L11.5563 9.4717C11.588 9.66188 11.3887 9.81132 11.2121 9.72075L10.4151 9.30415C10.3472 9.26792 10.2657 9.26792 10.1978 9.30415L9.40079 9.72075C9.22418 9.81132 9.02493 9.66641 9.05663 9.4717L9.20608 8.58867C9.21965 8.5117 9.19248 8.4347 9.13814 8.38036L8.49513 7.75092C8.35475 7.61055 8.43173 7.37509 8.62644 7.34339L9.514 7.21659C9.59097 7.20755 9.65891 7.15772 9.69514 7.08981L10.0936 6.27922C10.1796 6.10264 10.4333 6.10264 10.5193 6.27922L10.9133 7.08981C10.9495 7.15772 11.0174 7.20755 11.0944 7.21659L11.9819 7.34339C12.1766 7.37509 12.2536 7.61055 12.1132 7.75092ZM17.5608 7.75092L16.9178 8.37583C16.8634 8.43017 16.8408 8.5117 16.8544 8.58867L17.0038 9.4717C17.04 9.66188 16.8363 9.81132 16.6597 9.72075L15.8672 9.30415C15.7948 9.26792 15.7132 9.26792 15.6453 9.30415L14.8484 9.72075C14.6763 9.81132 14.4725 9.66641 14.5042 9.4717L14.6536 8.58867C14.6672 8.5117 14.64 8.4347 14.5857 8.38036L13.9427 7.75092C13.8023 7.61055 13.8793 7.37509 14.074 7.34339L14.9661 7.21659C15.0431 7.20755 15.1064 7.15772 15.1427 7.08981L15.5412 6.27922C15.6317 6.10264 15.8808 6.10264 15.9668 6.27922L16.3653 7.08981C16.397 7.15772 16.4649 7.20755 16.5419 7.21659L17.4295 7.34339C17.6242 7.37509 17.7012 7.61055 17.5608 7.75092Z" fill="#ff458a"/>
<path d="M22.6415 7.36147V14.6158C22.6415 15.2588 22.3789 15.8385 21.9623 16.2596C21.5412 16.6762 20.957 16.9343 20.3185 16.9343C20.1646 16.9343 20.0468 17.0747 20.074 17.2287L20.4589 19.7283C20.4996 19.9728 20.2098 20.1177 20.0378 19.9501L17.0355 17.0067C16.9857 16.966 16.9268 16.9343 16.8589 16.9343H7.06418C6.54795 16.9343 6.07248 16.7668 5.68756 16.4815L7.40381 14.8015H16.9313C18.711 14.8015 20.16 13.3524 20.16 11.5728V5.03845H20.3185C21.6 5.03845 22.6415 6.07545 22.6415 7.36147Z" fill="#ff458a"/>
</svg>
