<svg width="24" height="24" viewBox="0 0 24 24" fill="none" xmlns="http://www.w3.org/2000/svg">
<path fill-rule="evenodd" clip-rule="evenodd" d="M5 4C3.34315 4 2 5.34315 2 7V15C2 16.6569 3.34315 18 5 18H19C20.6569 18 22 16.6569 22 15V7C22 5.34315 20.6569 4 19 4H5ZM2 19C1.44772 19 1 19.4477 1 20C1 20.5523 1.44772 21 2 21H22C22.5523 21 23 20.5523 23 20C23 19.4477 22.5523 19 22 19H2ZM7.18359 12.1748C7.33822 11.8997 7.41553 11.5547 7.41553 11.1396C7.41553 10.7718 7.34554 10.4609 7.20557 10.207C7.06722 9.95312 6.86458 9.76025 6.59766 9.62842C6.33073 9.49658 6.00521 9.43066 5.62109 9.43066H4.38574V13H5.54053C5.91976 13 6.24935 12.9316 6.5293 12.7949C6.81087 12.6566 7.02897 12.4499 7.18359 12.1748ZM6.32666 10.6367C6.38525 10.7783 6.41455 10.9574 6.41455 11.1738C6.41455 11.5238 6.34619 11.7842 6.20947 11.9551C6.07275 12.1243 5.85791 12.209 5.56494 12.209H5.3501V10.2095H5.63086C5.80664 10.2095 5.95231 10.2453 6.06787 10.3169C6.18343 10.3869 6.26969 10.4935 6.32666 10.6367ZM8.43262 13H10.5518V12.2139H9.39697V11.54H10.4663V10.7661H9.39697V10.2046H10.5518V9.43066H8.43262V13ZM12.377 10.4292L13.1069 13H14.0249L14.7451 10.4341H14.7671C14.7622 10.5008 14.7565 10.592 14.75 10.7075C14.7451 10.8215 14.7402 10.9435 14.7354 11.0737C14.7321 11.2023 14.7305 11.3228 14.7305 11.4351V13H15.6167V9.43066H14.3301L13.6001 11.9648H13.5806L12.8359 9.43066H11.5518V13H12.4062V11.4497C12.4062 11.3276 12.403 11.2007 12.3965 11.0688C12.39 10.937 12.3826 10.8141 12.3745 10.7002C12.368 10.5863 12.3615 10.4959 12.355 10.4292H12.377ZM20.0005 11.9624C20.0672 11.7362 20.1006 11.4855 20.1006 11.2104C20.1006 10.8394 20.0412 10.5163 19.9224 10.2412C19.8035 9.96615 19.6164 9.75293 19.3608 9.60156C19.1069 9.4502 18.7765 9.37451 18.3696 9.37451C17.9692 9.37451 17.6405 9.4502 17.3833 9.60156C17.1261 9.7513 16.9357 9.9637 16.812 10.2388C16.6899 10.5122 16.6289 10.8345 16.6289 11.2056C16.6289 11.4839 16.6631 11.7362 16.7314 11.9624C16.7998 12.1886 16.9048 12.3831 17.0464 12.5459C17.188 12.707 17.3678 12.8315 17.5859 12.9194C17.8057 13.0057 18.0653 13.0488 18.3647 13.0488C18.6707 13.0488 18.9336 13.0057 19.1533 12.9194C19.373 12.8315 19.5529 12.7062 19.6929 12.5435C19.8328 12.3807 19.9354 12.187 20.0005 11.9624ZM17.7178 11.7646C17.6689 11.61 17.6445 11.4253 17.6445 11.2104C17.6445 10.9956 17.6681 10.8101 17.7153 10.6538C17.7642 10.4976 17.8415 10.3771 17.9473 10.2925C18.0547 10.2078 18.1955 10.1655 18.3696 10.1655C18.6317 10.1655 18.8164 10.2591 18.9238 10.4463C19.0312 10.6335 19.085 10.8882 19.085 11.2104C19.085 11.4253 19.0614 11.61 19.0142 11.7646C18.9686 11.9193 18.8929 12.0381 18.7871 12.1211C18.6829 12.2041 18.5422 12.2456 18.3647 12.2456C18.1938 12.2456 18.0555 12.2041 17.9497 12.1211C17.8439 12.0381 17.7666 11.9193 17.7178 11.7646Z" fill="#ff458a"/>
</svg>
